<svg width="22" height="19" viewBox="0 0 22 19" fill="none" xmlns="http://www.w3.org/2000/svg">
<g id="Shape">
<path id="Shape_2" d="M14.5 8.28046C15.1667 8.66536 15.1667 9.62761 14.5 10.0125L10 12.6106C9.33333 12.9955 8.5 12.5144 8.5 11.7446L8.5 6.54841C8.5 5.77861 9.33333 5.29748 10 5.68238L14.5 8.28046Z" stroke="white" stroke-opacity="0.8" stroke-linejoin="round"/>
<path id="Shape_3" d="M3.5 1.14648C2.58788 2.00793 1.83046 3.24695 1.30385 4.73901C0.777238 6.23107 0.5 7.9236 0.5 9.64648C0.5 11.3694 0.777237 13.0619 1.30385 14.554C1.83046 16.046 2.58788 17.285 3.5 18.1465" stroke="white" stroke-opacity="0.8" stroke-linecap="round"/>
<path id="Shape_4" d="M18.5 1.14648C19.4121 2.00793 20.1695 3.24695 20.6962 4.73901C21.2228 6.23107 21.5 7.9236 21.5 9.64648C21.5 11.3694 21.2228 13.0619 20.6962 14.554C20.1695 16.046 19.4121 17.285 18.5 18.1465" stroke="white" stroke-opacity="0.8" stroke-linecap="round"/>
<path id="Shape_5" d="M4.83975 4.73926C3.96206 6.23132 3.5 7.92385 3.5 9.64673C3.5 11.3696 3.96206 13.0622 4.83975 14.5542" stroke="white" stroke-opacity="0.8" stroke-linecap="round"/>
<path id="Shape_6" d="M17.1603 4.73926C18.0379 6.23132 18.5 7.92385 18.5 9.64673C18.5 11.3696 18.0379 13.0622 17.1603 14.5542" stroke="white" stroke-opacity="0.8" stroke-linecap="round"/>
</g>
</svg>
